<!DOCTYPE svg PUBLIC "-//W3C//DTD SVG 1.1//EN" "http://www.w3.org/Graphics/SVG/1.1/DTD/svg11.dtd">
<svg fill="#c2c2c4" version="1.1" id="Capa_1" xmlns="http://www.w3.org/2000/svg" xmlns:xlink="http://www.w3.org/1999/xlink" width="200px" height="200px" viewBox="0 0 46.8 46.8" xml:space="preserve" stroke="#c2c2c4">
<g id="SVGRepo_bgCarrier" stroke-width="0"/>
<g id="SVGRepo_iconCarrier"> <g> <path d="M23.961,1.453c-0.099-0.201-0.314-0.326-0.561-0.326c-0.247,0-0.461,0.125-0.56,0.326l-6.892,13.965l-15.412,2.24 c-0.237,0.034-0.43,0.197-0.505,0.425c-0.074,0.228-0.013,0.473,0.158,0.64l11.151,10.87L8.709,44.943 c-0.041,0.235,0.055,0.47,0.248,0.61c0.107,0.079,0.235,0.12,0.368,0.12c0.101,0,0.202-0.025,0.291-0.072L23.4,38.355l13.783,7.246 c0.207,0.108,0.47,0.09,0.659-0.048c0.193-0.141,0.289-0.375,0.248-0.61L35.46,29.592l11.151-10.87 c0.171-0.167,0.231-0.412,0.157-0.64c-0.073-0.228-0.268-0.391-0.504-0.425l-15.412-2.24L23.961,1.453z M34.351,28.926 c-0.146,0.144-0.214,0.351-0.179,0.554l2.473,14.426l-12.953-6.811c-0.089-0.047-0.19-0.072-0.291-0.072 c-0.101,0-0.202,0.025-0.291,0.072l-12.954,6.812l2.473-14.427c0.035-0.203-0.032-0.408-0.179-0.553L1.969,18.711l14.483-2.105 c0.204-0.029,0.38-0.157,0.471-0.342L23.4,3.141l6.477,13.124c0.091,0.185,0.268,0.312,0.471,0.342l14.484,2.105L34.351,28.926z"/> </g> <g> </g> <g> </g> <g> </g> <g> </g> <g> </g> <g> </g> <g> </g> <g> </g> <g> </g> <g> </g> <g> </g> <g> </g> <g> </g> <g> </g> <g> </g> </g>
</svg>